STARTFONT 2.1
FONT -FontForge-Minecraft-Medium-R-Normal--12-120-75-75-P-67-ISO10646-1
SIZE 12 75 75
FONTBOUNDINGBOX 11 12 0 -3
COMMENT "Generated by fontforge, http://fontforge.sourceforge.net"
COMMENT "CraftronGaming"
STARTPROPERTIES 39
FOUNDRY "FontForge"
FAMILY_NAME "Minecraft"
WEIGHT_NAME "Medium"
SLANT "R"
SETWIDTH_NAME "Normal"
ADD_STYLE_NAME ""
PIXEL_SIZE 12
POINT_SIZE 120
RESOLUTION_X 75
RESOLUTION_Y 75
SPACING "P"
AVERAGE_WIDTH 67
CHARSET_REGISTRY "ISO10646"
CHARSET_ENCODING "1"
FONTNAME_REGISTRY ""
CHARSET_COLLECTIONS "ISO10646-1"
FONT_NAME "Minecraft"
FACE_NAME "Minecraft"
COPYRIGHT "CraftronGaming"
FONT_VERSION "001.000"
FONT_ASCENT 9
FONT_DESCENT 3
UNDERLINE_POSITION -2
UNDERLINE_THICKNESS 1
X_HEIGHT 7
CAP_HEIGHT 8
RAW_ASCENT 750
RAW_DESCENT 250
NORM_SPACE 4
RELATIVE_WEIGHT 50
RELATIVE_SETWIDTH 50
SUPERSCRIPT_X 0
SUPERSCRIPT_Y 5
SUPERSCRIPT_SIZE 8
SUBSCRIPT_X 0
SUBSCRIPT_Y 1
SUBSCRIPT_SIZE 8
AVG_LOWERCASE_WIDTH 69
AVG_UPPERCASE_WIDTH 81
ENDPROPERTIES
CHARS 110
STARTCHAR space
ENCODING 32
SWIDTH 312 0
DWIDTH 4 0
BBX 1 1 0 0
BITMAP
00
ENDCHAR
STARTCHAR exclam
ENCODING 33
SWIDTH 187 0
DWIDTH 2 0
BBX 2 9 0 0
BITMAP
C0
C0
C0
C0
C0
C0
C0
C0
C0
ENDCHAR
STARTCHAR quotedbl
ENCODING 34
SWIDTH 562 0
DWIDTH 7 0
BBX 6 5 0 4
BITMAP
6C
6C
6C
D8
D8
ENDCHAR
STARTCHAR numbersign
ENCODING 35
SWIDTH 687 0
DWIDTH 8 0
BBX 8 9 0 0
BITMAP
6C
6C
FF
FF
6C
FF
FF
6C
6C
ENDCHAR
STARTCHAR dollar
ENCODING 36
SWIDTH 562 0
DWIDTH 7 0
BBX 6 11 0 -2
BITMAP
18
7C
7C
C0
E0
60
18
FC
FC
18
18
ENDCHAR
STARTCHAR percent
ENCODING 37
SWIDTH 875 0
DWIDTH 11 0
BBX 9 9 1 0
BITMAP
C200
A200
A400
A400
DB00
1280
1280
2280
4300
ENDCHAR
STARTCHAR ampersand
ENCODING 38
SWIDTH 687 0
DWIDTH 8 0
BBX 8 9 0 0
BITMAP
18
7C
6C
7B
FF
CC
CC
FF
7B
ENDCHAR
STARTCHAR quotesingle
ENCODING 39
SWIDTH 187 0
DWIDTH 2 0
BBX 2 3 0 6
BITMAP
C0
C0
C0
ENDCHAR
STARTCHAR parenleft
ENCODING 40
SWIDTH 437 0
DWIDTH 5 0
BBX 5 9 0 0
BITMAP
78
F8
C0
C0
C0
C0
C0
F8
78
ENDCHAR
STARTCHAR parenright
ENCODING 41
SWIDTH 437 0
DWIDTH 5 0
BBX 5 9 0 0
BITMAP
E0
F8
18
18
18
18
18
F8
E0
ENDCHAR
STARTCHAR asterisk
ENCODING 42
SWIDTH 437 0
DWIDTH 5 0
BBX 5 5 0 4
BITMAP
D8
F8
70
D8
D8
ENDCHAR
STARTCHAR plus
ENCODING 43
SWIDTH 625 0
DWIDTH 8 0
BBX 6 7 1 1
BITMAP
30
30
30
FC
30
30
30
ENDCHAR
STARTCHAR comma
ENCODING 44
SWIDTH 187 0
DWIDTH 2 0
BBX 2 4 0 -2
BITMAP
C0
C0
40
80
ENDCHAR
STARTCHAR hyphen
ENCODING 45
SWIDTH 375 0
DWIDTH 5 0
BBX 4 2 0 2
BITMAP
F0
F0
ENDCHAR
STARTCHAR period
ENCODING 46
SWIDTH 187 0
DWIDTH 2 0
BBX 2 2 0 0
BITMAP
C0
C0
ENDCHAR
STARTCHAR slash
ENCODING 47
SWIDTH 562 0
DWIDTH 7 0
BBX 6 9 0 0
BITMAP
04
0C
08
08
30
20
40
40
80
ENDCHAR
STARTCHAR zero
ENCODING 48
SWIDTH 562 0
DWIDTH 7 0
BBX 6 9 0 0
BITMAP
78
FC
CC
CC
FC
CC
CC
FC
78
ENDCHAR
STARTCHAR one
ENCODING 49
SWIDTH 437 0
DWIDTH 5 0
BBX 5 9 0 0
BITMAP
60
E0
E0
60
60
60
60
F8
F8
ENDCHAR
STARTCHAR two
ENCODING 50
SWIDTH 562 0
DWIDTH 7 0
BBX 6 9 0 0
BITMAP
78
FC
CC
18
78
60
C0
FC
FC
ENDCHAR
STARTCHAR three
ENCODING 51
SWIDTH 562 0
DWIDTH 7 0
BBX 6 9 0 0
BITMAP
78
FC
CC
0C
18
0C
CC
FC
78
ENDCHAR
STARTCHAR four
ENCODING 52
SWIDTH 625 0
DWIDTH 8 0
BBX 7 9 0 0
BITMAP
0C
1C
1C
6C
EC
CC
FE
FE
0C
ENDCHAR
STARTCHAR five
ENCODING 53
SWIDTH 687 0
DWIDTH 8 0
BBX 8 9 0 0
BITMAP
FC
FC
C0
C0
FC
7C
83
FF
7C
ENDCHAR
STARTCHAR six
ENCODING 54
SWIDTH 625 0
DWIDTH 8 0
BBX 7 9 0 0
BITMAP
1C
7C
60
C0
F8
F8
C6
FE
78
ENDCHAR
STARTCHAR seven
ENCODING 55
SWIDTH 562 0
DWIDTH 7 0
BBX 6 9 0 0
BITMAP
FC
FC
CC
18
78
60
60
60
60
ENDCHAR
STARTCHAR eight
ENCODING 56
SWIDTH 562 0
DWIDTH 7 0
BBX 6 9 0 0
BITMAP
78
FC
CC
CC
78
CC
CC
FC
78
ENDCHAR
STARTCHAR nine
ENCODING 57
SWIDTH 562 0
DWIDTH 7 0
BBX 6 9 0 0
BITMAP
78
FC
CC
CC
FC
7C
0C
7C
78
ENDCHAR
STARTCHAR colon
ENCODING 58
SWIDTH 250 0
DWIDTH 3 0
BBX 1 7 1 0
BITMAP
80
80
00
00
00
80
80
ENDCHAR
STARTCHAR semicolon
ENCODING 59
SWIDTH 250 0
DWIDTH 3 0
BBX 1 9 1 -2
BITMAP
80
80
00
00
00
80
80
80
80
ENDCHAR
STARTCHAR less
ENCODING 60
SWIDTH 437 0
DWIDTH 5 0
BBX 5 7 0 1
BITMAP
18
18
60
C0
60
18
18
ENDCHAR
STARTCHAR equal
ENCODING 61
SWIDTH 562 0
DWIDTH 7 0
BBX 6 5 0 2
BITMAP
FC
FC
00
FC
FC
ENDCHAR
STARTCHAR greater
ENCODING 62
SWIDTH 437 0
DWIDTH 5 0
BBX 5 7 0 1
BITMAP
C0
C0
60
18
60
C0
C0
ENDCHAR
STARTCHAR question
ENCODING 63
SWIDTH 562 0
DWIDTH 7 0
BBX 6 9 0 0
BITMAP
78
FC
CC
0C
18
60
60
60
60
ENDCHAR
STARTCHAR at
ENCODING 64
SWIDTH 937 0
DWIDTH 11 0
BBX 11 11 0 -2
BITMAP
7F80
FFE0
C060
CF60
DF60
D960
D960
DFE0
DF80
C060
7FC0
ENDCHAR
STARTCHAR A
ENCODING 65
SWIDTH 625 0
DWIDTH 8 0
BBX 7 9 0 0
BITMAP
78
FE
C6
FE
FE
C6
C6
C6
C6
ENDCHAR
STARTCHAR B
ENCODING 66
SWIDTH 687 0
DWIDTH 8 0
BBX 8 9 0 0
BITMAP
FC
FF
C3
C3
FC
C3
C3
FF
FC
ENDCHAR
STARTCHAR C
ENCODING 67
SWIDTH 750 0
DWIDTH 9 0
BBX 8 9 0 0
BITMAP
7F
FF
C1
C0
C0
C0
C1
FF
7F
ENDCHAR
STARTCHAR D
ENCODING 68
SWIDTH 687 0
DWIDTH 8 0
BBX 8 9 0 0
BITMAP
FC
FF
C3
C3
C3
C3
C3
FF
FC
ENDCHAR
STARTCHAR E
ENCODING 69
SWIDTH 687 0
DWIDTH 8 0
BBX 8 9 0 0
BITMAP
FF
FF
C0
F0
F0
C0
C0
FF
FF
ENDCHAR
STARTCHAR F
ENCODING 70
SWIDTH 625 0
DWIDTH 8 0
BBX 7 9 0 0
BITMAP
FE
FE
C0
F8
F8
C0
C0
C0
C0
ENDCHAR
STARTCHAR G
ENCODING 71
SWIDTH 750 0
DWIDTH 9 0
BBX 8 9 0 0
BITMAP
7F
FF
C0
C7
C7
C1
C1
FF
7E
ENDCHAR
STARTCHAR H
ENCODING 72
SWIDTH 687 0
DWIDTH 8 0
BBX 8 9 0 0
BITMAP
C3
C3
C3
C3
FF
C3
C3
C3
C3
ENDCHAR
STARTCHAR I
ENCODING 73
SWIDTH 375 0
DWIDTH 5 0
BBX 3 9 1 0
BITMAP
E0
E0
C0
C0
C0
C0
C0
E0
E0
ENDCHAR
STARTCHAR J
ENCODING 74
SWIDTH 500 0
DWIDTH 6 0
BBX 5 9 0 0
BITMAP
08
08
08
08
08
08
C8
F8
70
ENDCHAR
STARTCHAR K
ENCODING 75
SWIDTH 625 0
DWIDTH 8 0
BBX 7 9 0 0
BITMAP
C0
C6
C8
C8
F0
C8
C8
C6
C6
ENDCHAR
STARTCHAR L
ENCODING 76
SWIDTH 625 0
DWIDTH 8 0
BBX 7 9 0 0
BITMAP
C0
C0
C0
C0
C0
C0
C0
FE
FE
ENDCHAR
STARTCHAR M
ENCODING 77
SWIDTH 687 0
DWIDTH 8 0
BBX 8 9 0 0
BITMAP
C3
EF
EF
DB
DB
C3
C3
C3
C3
ENDCHAR
STARTCHAR N
ENCODING 78
SWIDTH 687 0
DWIDTH 8 0
BBX 8 9 0 0
BITMAP
C3
E3
DB
DB
CF
C3
C3
C3
C3
ENDCHAR
STARTCHAR O
ENCODING 79
SWIDTH 812 0
DWIDTH 10 0
BBX 9 9 0 0
BITMAP
7F00
FF80
C180
C180
C180
C180
C180
FF80
7F00
ENDCHAR
STARTCHAR P
ENCODING 80
SWIDTH 687 0
DWIDTH 8 0
BBX 8 9 0 0
BITMAP
FC
FF
C3
FC
FC
C0
C0
C0
C0
ENDCHAR
STARTCHAR Q
ENCODING 81
SWIDTH 812 0
DWIDTH 10 0
BBX 9 9 0 0
BITMAP
7F00
FF80
C180
C180
C180
C180
C180
FF80
7F80
ENDCHAR
STARTCHAR R
ENCODING 82
SWIDTH 812 0
DWIDTH 10 0
BBX 9 9 0 0
BITMAP
FE00
FF00
C100
FE00
FE00
CC00
C300
C380
C180
ENDCHAR
STARTCHAR S
ENCODING 83
SWIDTH 625 0
DWIDTH 8 0
BBX 7 9 0 0
BITMAP
7E
FE
C0
78
7E
06
06
FE
F8
ENDCHAR
STARTCHAR T
ENCODING 84
SWIDTH 687 0
DWIDTH 8 0
BBX 8 9 0 0
BITMAP
FF
FF
18
18
18
18
18
18
18
ENDCHAR
STARTCHAR U
ENCODING 85
SWIDTH 687 0
DWIDTH 8 0
BBX 7 9 1 0
BITMAP
86
86
86
86
86
86
86
FE
78
ENDCHAR
STARTCHAR V
ENCODING 86
SWIDTH 687 0
DWIDTH 8 0
BBX 8 9 0 0
BITMAP
C3
C3
C3
C3
6C
6C
18
18
18
ENDCHAR
STARTCHAR W
ENCODING 87
SWIDTH 687 0
DWIDTH 8 0
BBX 8 9 0 0
BITMAP
C3
C3
C3
C3
DB
DB
EF
EF
C3
ENDCHAR
STARTCHAR X
ENCODING 88
SWIDTH 687 0
DWIDTH 8 0
BBX 8 9 0 0
BITMAP
C3
EF
6C
18
7C
6C
C3
C3
C3
ENDCHAR
STARTCHAR Y
ENCODING 89
SWIDTH 687 0
DWIDTH 8 0
BBX 8 9 0 0
BITMAP
C3
EF
6C
18
18
18
18
18
18
ENDCHAR
STARTCHAR Z
ENCODING 90
SWIDTH 687 0
DWIDTH 8 0
BBX 8 9 0 0
BITMAP
FF
FF
03
0C
1C
18
60
FF
FF
ENDCHAR
STARTCHAR bracketleft
ENCODING 91
SWIDTH 312 0
DWIDTH 4 0
BBX 3 11 0 -2
BITMAP
E0
E0
C0
C0
C0
C0
C0
C0
C0
C0
E0
ENDCHAR
STARTCHAR backslash
ENCODING 92
SWIDTH 562 0
DWIDTH 7 0
BBX 6 9 0 0
BITMAP
80
C0
40
40
30
10
08
08
04
ENDCHAR
STARTCHAR bracketright
ENCODING 93
SWIDTH 312 0
DWIDTH 4 0
BBX 3 11 0 -2
BITMAP
E0
E0
60
60
60
60
60
60
60
60
E0
ENDCHAR
STARTCHAR asciicircum
ENCODING 94
SWIDTH 562 0
DWIDTH 7 0
BBX 6 5 0 4
BITMAP
30
78
48
84
84
ENDCHAR
STARTCHAR underscore
ENCODING 95
SWIDTH 625 0
DWIDTH 8 0
BBX 7 1 0 0
BITMAP
FE
ENDCHAR
STARTCHAR grave
ENCODING 96
SWIDTH 312 0
DWIDTH 4 0
BBX 2 2 1 7
BITMAP
80
C0
ENDCHAR
STARTCHAR a
ENCODING 97
SWIDTH 625 0
DWIDTH 8 0
BBX 7 7 0 0
BITMAP
F8
F8
7E
7E
C6
FE
7E
ENDCHAR
STARTCHAR b
ENCODING 98
SWIDTH 687 0
DWIDTH 8 0
BBX 8 9 0 0
BITMAP
C0
C0
C0
DC
FF
E3
C3
FF
FC
ENDCHAR
STARTCHAR c
ENCODING 99
SWIDTH 625 0
DWIDTH 8 0
BBX 7 7 0 0
BITMAP
78
78
C6
C0
C6
FE
78
ENDCHAR
STARTCHAR d
ENCODING 100
SWIDTH 562 0
DWIDTH 7 0
BBX 6 9 0 0
BITMAP
0C
0C
7C
7C
CC
CC
CC
FC
FC
ENDCHAR
STARTCHAR e
ENCODING 101
SWIDTH 562 0
DWIDTH 7 0
BBX 6 7 0 0
BITMAP
7C
7C
FC
F8
C0
FC
7C
ENDCHAR
STARTCHAR f
ENCODING 102
SWIDTH 562 0
DWIDTH 7 0
BBX 6 9 0 0
BITMAP
78
78
FC
FC
60
60
60
60
60
ENDCHAR
STARTCHAR g
ENCODING 103
SWIDTH 562 0
DWIDTH 7 0
BBX 6 10 0 -3
BITMAP
7C
7C
CC
7C
7C
0C
0C
CC
FC
78
ENDCHAR
STARTCHAR h
ENCODING 104
SWIDTH 562 0
DWIDTH 7 0
BBX 6 9 0 0
BITMAP
C0
C0
C0
D8
FC
EC
CC
CC
CC
ENDCHAR
STARTCHAR i
ENCODING 105
SWIDTH 187 0
DWIDTH 2 0
BBX 2 9 0 0
BITMAP
C0
C0
C0
C0
C0
C0
C0
C0
C0
ENDCHAR
STARTCHAR j
ENCODING 106
SWIDTH 500 0
DWIDTH 6 0
BBX 5 10 0 -2
BITMAP
08
08
00
08
08
08
C8
C8
70
70
ENDCHAR
STARTCHAR k
ENCODING 107
SWIDTH 562 0
DWIDTH 7 0
BBX 6 9 0 0
BITMAP
C0
CC
CC
D8
F8
E0
D8
DC
CC
ENDCHAR
STARTCHAR l
ENCODING 108
SWIDTH 187 0
DWIDTH 2 0
BBX 2 9 0 0
BITMAP
C0
C0
C0
C0
C0
C0
C0
C0
C0
ENDCHAR
STARTCHAR m
ENCODING 109
SWIDTH 937 0
DWIDTH 11 0
BBX 11 7 0 0
BITMAP
FB80
FB80
CC60
CC60
CC60
CC60
CC60
ENDCHAR
STARTCHAR n
ENCODING 110
SWIDTH 625 0
DWIDTH 8 0
BBX 7 7 0 0
BITMAP
F8
F8
C6
C6
C6
C6
C6
ENDCHAR
STARTCHAR o
ENCODING 111
SWIDTH 562 0
DWIDTH 7 0
BBX 6 7 0 0
BITMAP
78
78
CC
CC
CC
FC
78
ENDCHAR
STARTCHAR p
ENCODING 112
SWIDTH 625 0
DWIDTH 8 0
BBX 7 9 0 -2
BITMAP
D8
D8
E6
C6
C6
F8
C0
C0
C0
ENDCHAR
STARTCHAR q
ENCODING 113
SWIDTH 562 0
DWIDTH 7 0
BBX 6 9 0 -2
BITMAP
7C
7C
CC
CC
CC
FC
7C
0C
0C
ENDCHAR
STARTCHAR r
ENCODING 114
SWIDTH 500 0
DWIDTH 6 0
BBX 5 7 0 0
BITMAP
F8
F8
C8
C0
C0
C0
C0
ENDCHAR
STARTCHAR s
ENCODING 115
SWIDTH 500 0
DWIDTH 6 0
BBX 5 8 0 0
BITMAP
78
78
C0
F0
70
08
F8
F0
ENDCHAR
STARTCHAR t
ENCODING 116
SWIDTH 375 0
DWIDTH 5 0
BBX 4 8 0 0
BITMAP
40
E0
E0
40
40
40
70
30
ENDCHAR
STARTCHAR u
ENCODING 117
SWIDTH 562 0
DWIDTH 7 0
BBX 6 7 0 0
BITMAP
CC
CC
CC
CC
CC
FC
7C
ENDCHAR
STARTCHAR v
ENCODING 118
SWIDTH 687 0
DWIDTH 8 0
BBX 8 5 0 0
BITMAP
C3
C3
6C
7C
18
ENDCHAR
STARTCHAR w
ENCODING 119
SWIDTH 750 0
DWIDTH 9 0
BBX 8 6 0 0
BITMAP
C1
C1
C9
C9
FF
7F
ENDCHAR
STARTCHAR x
ENCODING 120
SWIDTH 687 0
DWIDTH 8 0
BBX 8 8 0 0
BITMAP
C3
C3
6C
7C
18
6C
EF
C3
ENDCHAR
STARTCHAR y
ENCODING 121
SWIDTH 562 0
DWIDTH 7 0
BBX 6 9 0 -2
BITMAP
CC
CC
CC
CC
7C
7C
0C
F8
F8
ENDCHAR
STARTCHAR z
ENCODING 122
SWIDTH 562 0
DWIDTH 7 0
BBX 6 8 0 0
BITMAP
FC
FC
08
38
30
40
FC
FC
ENDCHAR
STARTCHAR braceleft
ENCODING 123
SWIDTH 375 0
DWIDTH 5 0
BBX 4 12 0 -3
BITMAP
30
70
40
40
40
C0
40
40
40
40
70
30
ENDCHAR
STARTCHAR bar
ENCODING 124
SWIDTH 187 0
DWIDTH 2 0
BBX 2 12 0 -3
BITMAP
C0
C0
C0
C0
C0
C0
C0
C0
C0
C0
C0
C0
ENDCHAR
STARTCHAR braceright
ENCODING 125
SWIDTH 375 0
DWIDTH 5 0
BBX 4 12 0 -3
BITMAP
C0
E0
60
60
60
30
60
60
60
60
E0
C0
ENDCHAR
STARTCHAR asciitilde
ENCODING 126
SWIDTH 687 0
DWIDTH 8 0
BBX 8 1 0 4
BITMAP
FF
ENDCHAR
STARTCHAR uni00A0
ENCODING 160
SWIDTH 312 0
DWIDTH 4 0
BBX 1 1 0 0
BITMAP
00
ENDCHAR
STARTCHAR exclamdown
ENCODING 161
SWIDTH 375 0
DWIDTH 5 0
BBX 3 8 1 -2
BITMAP
C0
C0
C0
C0
C0
C0
C0
E0
ENDCHAR
STARTCHAR cent
ENCODING 162
SWIDTH 562 0
DWIDTH 7 0
BBX 6 11 0 -2
BITMAP
08
78
78
CC
DC
E0
EC
FC
78
40
80
ENDCHAR
STARTCHAR sterling
ENCODING 163
SWIDTH 562 0
DWIDTH 7 0
BBX 6 9 0 0
BITMAP
38
7C
4C
40
F8
60
60
FC
FC
ENDCHAR
STARTCHAR currency
ENCODING 164
SWIDTH 625 0
DWIDTH 8 0
BBX 7 7 0 1
BITMAP
82
7C
78
4C
4C
78
FE
ENDCHAR
STARTCHAR yen
ENCODING 165
SWIDTH 625 0
DWIDTH 8 0
BBX 7 9 0 -1
BITMAP
82
44
48
FE
FE
10
FE
10
10
ENDCHAR
STARTCHAR brokenbar
ENCODING 166
SWIDTH 250 0
DWIDTH 3 0
BBX 1 12 1 -3
BITMAP
80
80
80
80
80
00
00
80
80
80
80
80
ENDCHAR
STARTCHAR section
ENCODING 167
SWIDTH 562 0
DWIDTH 7 0
BBX 5 10 1 -2
BITMAP
F0
80
40
B0
90
88
70
10
90
F0
ENDCHAR
STARTCHAR dieresis
ENCODING 168
SWIDTH 375 0
DWIDTH 5 0
BBX 4 2 0 7
BITMAP
F0
F0
ENDCHAR
STARTCHAR copyright
ENCODING 169
SWIDTH 812 0
DWIDTH 10 0
BBX 9 9 0 0
BITMAP
1C00
6300
4900
9480
A080
A080
5500
6B00
1C00
ENDCHAR
STARTCHAR Euro
ENCODING 8364
SWIDTH 625 0
DWIDTH 8 0
BBX 7 10 0 -1
BITMAP
38
7E
40
FC
FC
F8
F8
64
3C
18
ENDCHAR
STARTCHAR uni3000
ENCODING 12288
SWIDTH 1000 0
DWIDTH 12 0
BBX 1 1 0 0
BITMAP
00
ENDCHAR
STARTCHAR .notdef
ENCODING -1
SWIDTH 365 0
DWIDTH 4 0
BBX 4 9 0 0
BITMAP
F0
90
90
90
90
90
90
90
F0
ENDCHAR
STARTCHAR .null
ENCODING -1
SWIDTH 0 0
DWIDTH 0 0
BBX 1 1 0 0
BITMAP
00
ENDCHAR
STARTCHAR nonmarkingreturn
ENCODING -1
SWIDTH 333 0
DWIDTH 4 0
BBX 1 1 0 0
BITMAP
00
ENDCHAR
ENDFONT
